<?xml version="1.0" encoding="UTF-8"?>
<svg id="layout" xmlns="http://www.w3.org/2000/svg" viewBox="0 0 653.23 186.16">
  <defs>
    <style>
      .cls-1 {
        fill: #003566;
      }
    </style>
  </defs>
  <g>
    <path class="cls-1" d="M192.41,124.11c-4.17,0-7.93-.73-11.27-2.19-3.34-1.46-6-3.6-7.97-6.43-1.86-2.67-2.87-5.93-3.02-9.8-.02-.38.3-.7.68-.7h8.6c.36,0,.65.29.67.65.18,3.02,1.3,5.49,3.36,7.41,2.2,2.06,5.16,3.09,8.87,3.09,3.2,0,5.81-.76,7.84-2.27,2.03-1.51,3.04-3.64,3.04-6.38,0-1.66-.27-3.03-.81-4.11-.54-1.08-1.44-2.04-2.7-2.87-1.26-.83-2.91-1.63-4.97-2.4-2.06-.77-4.63-1.67-7.71-2.7-3.49-1.2-6.36-2.57-8.61-4.11-2.26-1.54-3.91-3.34-4.97-5.4-1.06-2.06-1.59-4.37-1.59-6.94,0-3.71.87-6.81,2.61-9.3,1.74-2.49,4.1-4.37,7.07-5.66,2.97-1.29,6.28-1.93,9.94-1.93s6.97.66,9.94,1.97c2.97,1.32,5.36,3.23,7.16,5.74,1.69,2.36,2.61,5.24,2.76,8.64.02.38-.3.7-.68.7h-8.61c-.36,0-.64-.28-.67-.64-.19-2.29-1.14-4.24-2.84-5.83-1.86-1.74-4.33-2.61-7.41-2.61-2.63-.06-4.86.61-6.69,2.01-1.83,1.4-2.74,3.44-2.74,6.13,0,1.89.56,3.43,1.67,4.63,1.11,1.2,2.76,2.26,4.93,3.17,2.17.91,4.86,1.92,8.06,3,2,.69,3.99,1.47,5.96,2.36,1.97.89,3.77,2,5.4,3.34,1.63,1.34,2.93,3,3.9,4.97.97,1.97,1.46,4.39,1.46,7.24,0,3.6-.93,6.69-2.79,9.26-1.86,2.57-4.34,4.54-7.46,5.91-3.11,1.37-6.59,2.06-10.41,2.06Z"/>
    <path class="cls-1" d="M219.47,122.4v-41.16c0-.37.3-.67.67-.67h7.99c.37,0,.67.3.67.67v41.16c0,.37-.3.67-.67.67h-7.99c-.37,0-.67-.3-.67-.67Z"/>
    <path class="cls-1" d="M236.63,122.4v-41.16c0-.37.3-.67.67-.67h7.76c.36,0,.66.29.67.65l.09,2.87c.02.61.77.89,1.17.43,1.23-1.41,2.71-2.53,4.42-3.35,2.26-1.08,4.7-1.63,7.33-1.63,3.26,0,6.2.67,8.83,2.01,2.31,1.18,4.16,2.95,5.54,5.3.25.42.86.44,1.13.03,1.41-2.17,3.23-3.89,5.46-5.16,2.54-1.46,5.33-2.19,8.36-2.19,3.37,0,6.34.67,8.91,2.01,2.57,1.34,4.6,3.39,6.08,6.13,1.49,2.74,2.23,6.2,2.23,10.37v24.35c0,.37-.3.67-.67.67h-7.99c-.37,0-.67-.3-.67-.67v-23.07c0-3.71-.81-6.58-2.44-8.61-1.63-2.03-4.07-3.04-7.33-3.04s-5.83,1.1-7.71,3.3c-1.89,2.2-2.83,5.24-2.83,9.13v22.3c0,.37-.3.67-.67.67h-7.99c-.37,0-.67-.3-.67-.67v-23.07c0-3.77-.84-6.66-2.53-8.66-1.69-2-4.1-3-7.24-3-2.91,0-5.4,1.03-7.46,3.09-2.06,2.06-3.09,5.17-3.09,9.34v22.3c0,.37-.3.67-.67.67h-7.99c-.37,0-.67-.3-.67-.67Z"/>
    <path class="cls-1" d="M312.31,141.26v-60.02c0-.37.3-.67.67-.67h7.76c.36,0,.66.29.67.65l.16,3.89c.02.61.78.87,1.18.41,1.37-1.55,3.02-2.85,4.98-3.92,2.51-1.37,5.43-2.06,8.74-2.06,4.23,0,7.84.99,10.84,2.96,3,1.97,5.33,4.64,6.99,8.01,1.66,3.37,2.49,7.11,2.49,11.23s-.83,7.89-2.49,11.31c-1.66,3.43-4,6.13-7.03,8.1-3.03,1.97-6.63,2.96-10.8,2.96-3.54,0-6.57-.73-9.08-2.19-1.82-1.06-3.32-2.26-4.48-3.6-.41-.47-1.18-.18-1.18.44v22.5c0,.37-.3.67-.67.67h-8.08c-.37,0-.67-.3-.67-.67ZM334.42,115.88c2.57,0,4.8-.61,6.69-1.84,1.89-1.23,3.37-2.91,4.46-5.06,1.08-2.14,1.63-4.56,1.63-7.24,0-2.86-.56-5.33-1.67-7.41-1.11-2.08-2.63-3.7-4.54-4.84-1.92-1.14-4.1-1.71-6.56-1.71s-4.64.6-6.56,1.8c-1.91,1.2-3.41,2.86-4.5,4.97-1.09,2.11-1.63,4.54-1.63,7.29s.53,5.01,1.59,7.16c1.06,2.14,2.54,3.83,4.46,5.06,1.91,1.23,4.13,1.84,6.64,1.84Z"/>
    <path class="cls-1" d="M362.56,122.4v-58.65c0-.37.3-.67.67-.67h8.08c.37,0,.67.3.67.67v58.65c0,.37-.3.67-.67.67h-8.08c-.37,0-.67-.3-.67-.67Z"/>
    <path class="cls-1" d="M392.76,124.11c-2.69,0-5.16-.5-7.41-1.5-2.26-1-4.07-2.47-5.44-4.41-1.37-1.94-2.06-4.29-2.06-7.03,0-3.2.81-5.79,2.44-7.76,1.63-1.97,3.81-3.43,6.56-4.37,2.74-.94,5.8-1.41,9.17-1.41h9.94c.38,0,.69-.31.68-.69-.07-2.08-.45-3.78-1.15-5.09-.77-1.46-1.83-2.56-3.17-3.3-1.34-.74-2.9-1.11-4.67-1.11-2.34,0-4.4.54-6.17,1.63-1.63,1-2.68,2.53-3.15,4.6-.07.31-.34.54-.66.54h-8.2c-.4,0-.73-.36-.67-.76.38-2.76,1.39-5.14,3.04-7.13,1.8-2.17,4.1-3.84,6.9-5.01,2.8-1.17,5.8-1.76,9-1.76,4.11,0,7.53.76,10.24,2.27,2.71,1.51,4.76,3.61,6.13,6.3,1.37,2.69,2.06,5.77,2.06,9.26v13.03c.06,1.6.43,2.76,1.11,3.47.6.63,1.55,1.02,2.85,1.19.33.04.58.34.58.68v6.67c0,.38-.31.69-.69.68-2.05-.05-3.84-.3-5.35-.76-1.69-.51-3.08-1.29-4.2-2.31-.85-.79-1.56-1.76-2.13-2.91-.22-.46-.85-.52-1.14-.11-1.33,1.85-3.12,3.44-5.38,4.78-2.66,1.57-5.67,2.36-9.04,2.36ZM395.07,116.39c2.28,0,4.3-.54,6.04-1.63,1.74-1.08,3.1-2.56,4.07-4.41.94-1.8,1.46-3.77,1.46-5.92,0-.17-.11-.38-.49-.38h-9.54c-1.54,0-3.01.2-4.41.6-1.4.4-2.53,1.06-3.39,1.97-.86.91-1.29,2.14-1.29,3.69,0,2.11.74,3.66,2.23,4.63,1.49.97,3.26,1.46,5.31,1.46Z"/>
    <path class="cls-1" d="M426.8,122.4v-58.65c0-.37.3-.67.67-.67h18.95c7.14,0,12.98,1.24,17.53,3.73s7.9,5.97,10.07,10.46c2.17,4.49,3.26,9.79,3.26,15.9s-1.16,11.67-3.47,16.16c-2.31,4.49-5.74,7.9-10.29,10.24-4.54,2.34-10.24,3.51-17.1,3.51h-18.95c-.37,0-.67-.3-.67-.67ZM436.23,114.43c0,.37.3.67.67.67h9.18c5.31,0,9.54-.87,12.68-2.61,3.14-1.74,5.4-4.26,6.77-7.54,1.37-3.29,2.06-7.21,2.06-11.79,0-7.6-1.74-13.18-5.23-16.76-3.49-3.57-8.91-5.36-16.28-5.36h-9.18c-.37,0-.67.3-.67.67v42.7Z"/>
    <path class="cls-1" d="M503.71,124.11c-4.17,0-7.9-.9-11.18-2.7-3.29-1.8-5.89-4.38-7.8-7.76-1.92-3.37-2.87-7.31-2.87-11.83s.99-8.6,2.96-11.91c1.97-3.31,4.64-5.87,8.01-7.67,3.37-1.8,7.11-2.7,11.23-2.7s7.84.9,11.18,2.7c3.34,1.8,6,4.36,7.97,7.67,1.97,3.31,2.96,7.29,2.96,11.91,0,4.29-.96,8.11-2.87,11.48-1.91,3.37-4.56,6.01-7.93,7.93-3.37,1.91-7.26,2.87-11.66,2.87ZM503.8,115.96c2.46,0,4.64-.63,6.56-1.89,1.91-1.26,3.43-2.96,4.54-5.1,1.11-2.14,1.67-4.59,1.67-7.33s-.54-5.26-1.63-7.37c-1.09-2.11-2.59-3.74-4.5-4.89-1.92-1.14-4.1-1.71-6.56-1.71-2.63,0-4.87.61-6.73,1.84-1.86,1.23-3.29,2.9-4.29,5.01-1,2.11-1.5,4.54-1.5,7.29,0,3.03.57,5.6,1.71,7.71,1.14,2.11,2.67,3.71,4.59,4.8,1.91,1.09,3.96,1.63,6.13,1.63Z"/>
    <path class="cls-1" d="M551.32,124.11c-4.17,0-7.86-.94-11.06-2.83-3.2-1.89-5.71-4.5-7.54-7.84-1.83-3.34-2.74-7.21-2.74-11.61s.88-8.18,2.66-11.53c1.77-3.34,4.26-5.97,7.46-7.89,3.2-1.91,6.94-2.87,11.23-2.87,5.09,0,9.39,1.3,12.9,3.9,3.3,2.44,5.56,5.83,6.77,10.17.12.43-.21.85-.65.85h-8.56c-.3,0-.55-.2-.64-.49-.57-1.83-1.68-3.34-3.33-4.53-1.8-1.29-3.99-1.93-6.56-1.93s-4.8.66-6.51,1.97c-1.71,1.32-3,3.06-3.86,5.23-.86,2.17-1.29,4.54-1.29,7.11s.46,5.11,1.37,7.29c.91,2.17,2.23,3.89,3.94,5.14,1.71,1.26,3.83,1.89,6.34,1.89s4.66-.6,6.43-1.8c1.64-1.11,2.79-2.67,3.45-4.67.09-.28.34-.47.64-.47h8.58c.44,0,.77.42.66.84-.72,2.68-1.92,5.04-3.61,7.09-1.86,2.26-4.16,3.99-6.9,5.19-2.74,1.2-5.8,1.8-9.17,1.8Z"/>
    <path class="cls-1" d="M593.68,124.11c-3.31,0-6.34-.59-9.08-1.76-2.74-1.17-4.99-2.84-6.73-5.01-1.59-1.98-2.55-4.28-2.88-6.88-.05-.4.27-.75.67-.75h8.15c.31,0,.57.22.65.52.46,1.77,1.45,3.24,2.97,4.41,1.66,1.29,3.71,1.93,6.17,1.93,2.23,0,4.04-.47,5.44-1.41,1.4-.94,2.1-2.24,2.1-3.9,0-1.43-.47-2.53-1.41-3.3-.94-.77-2.14-1.37-3.6-1.8-1.46-.43-2.99-.81-4.59-1.16-2.69-.63-5.19-1.4-7.5-2.31-2.31-.91-4.19-2.19-5.61-3.81-1.43-1.63-2.14-3.78-2.14-6.47s.73-4.98,2.19-6.9c1.46-1.91,3.43-3.39,5.91-4.41,2.49-1.03,5.24-1.54,8.27-1.54,4.68,0,8.57,1.17,11.66,3.51,2.91,2.21,4.62,5.36,5.15,9.45.05.4-.27.75-.67.75h-7.74c-.34,0-.61-.25-.67-.59-.27-1.66-1.06-2.96-2.37-3.91-1.46-1.06-3.3-1.59-5.53-1.59-2,0-3.66.39-4.97,1.16-1.32.77-1.97,1.99-1.97,3.64,0,1.14.46,2.1,1.37,2.87.91.77,2.11,1.4,3.6,1.89,1.49.49,2.97.9,4.46,1.24,2.91.69,5.51,1.49,7.8,2.4,2.28.91,4.11,2.2,5.48,3.86,1.37,1.66,2.06,3.91,2.06,6.77.06,2.69-.66,5.01-2.14,6.99-1.49,1.97-3.49,3.49-6,4.54-2.52,1.06-5.34,1.59-8.49,1.59Z"/>
    <path class="cls-1" d="M224.09,73.45c-1.71,0-3.17-.6-4.37-1.8-1.2-1.2-1.8-2.69-1.8-4.46s.6-3.17,1.8-4.37c1.2-1.2,2.66-1.8,4.37-1.8s3.26.6,4.46,1.8c1.2,1.2,1.8,2.66,1.8,4.37s-.6,3.26-1.8,4.46c-1.2,1.2-2.69,1.8-4.46,1.8Z"/>
  </g>
  <path class="cls-1" d="M126.69,71.89s-.06-.08-.1-.12c-.09-.1-.18-.2-.28-.29-.03-.03-.05-.06-.08-.08-.03-.02-.06-.04-.09-.06-.07-.05-.14-.1-.22-.14-.07-.04-.14-.08-.21-.12-.07-.04-.15-.06-.23-.09-.08-.03-.17-.06-.25-.08-.07-.02-.14-.03-.21-.04-.1-.02-.2-.03-.3-.03-.04,0-.08-.01-.12-.01h-33.16l35.02-35.02c.91-.91,1.05-2.38.23-3.47-.52-.68-1.36-1.03-2.22-1.03h-39.36c-.72,0-1.4.28-1.91.79l-39.48,39.48s0,0,0,0c-.48.48-.78,1.14-.78,1.87v39.52c0,.83.39,1.56.99,2.04.04.04.08.07.13.11.05.03.1.06.15.09.05.03.1.07.15.09.04.02.09.04.14.06.03.02.07.03.1.05.14.06.28.1.42.13.03,0,.06.01.09.02.16.03.32.05.47.05,0,0,0,0,0,0s0,0,0,0h33.16l-35.02,35.02c-.92.92-1.05,2.41-.21,3.5.51.66,1.33,1,2.17,1h39.42c.7,0,1.37-.28,1.86-.77l39.52-39.52c.12-.12.23-.26.33-.4.02-.03.04-.07.06-.1.07-.11.14-.23.19-.35.02-.05.03-.1.05-.15.04-.11.08-.22.1-.34.03-.16.05-.32.05-.49,0-.01,0-.02,0-.03h0v-39.52c0-.59-.2-1.14-.54-1.58ZM121.95,81.18v28.05c0,.62-.5,1.12-1.12,1.12h-28.05c-.5,0-.75-.6-.4-.96l28.61-28.61c.35-.35.96-.1.96.4ZM85.84,36.91c.21-.21.49-.33.79-.33h30.25c.5,0,.75.6.4.96l-32.96,32.96c-.21.21-.49.33-.79.33h-30.25c-.5,0-.75-.6-.4-.96l32.96-32.96ZM48.19,105.27v-28.61c0-.31.25-.56.56-.56h28.61c.5,0,.75.6.4.96l-28.61,28.61c-.35.35-.96.1-.96-.4ZM52.87,109.39l32.96-32.96c.21-.21.49-.33.79-.33h30.25c.5,0,.75.6.4.96l-32.96,32.96c-.21.21-.49.33-.79.33h-30.25c-.5,0-.75-.6-.4-.96ZM84.31,149.53c-.21.21-.5.33-.79.33h-30.25c-.5,0-.75-.6-.4-.96l32.96-32.96c.21-.21.49-.33.79-.33h30.25c.5,0,.75.6.4.96l-32.96,32.96Z"/>
</svg>