<?xml version="1.0" encoding="UTF-8"?>
<svg id="layout" xmlns="http://www.w3.org/2000/svg" viewBox="0 0 199.89 211">
  <defs>
    <style>
      .cls-1 {
        fill: #003566;
      }
    </style>
  </defs>
  <path class="cls-1" d="M58.04,172.6c-1.32,0-2.56-.58-3.32-1.56-1.27-1.64-1.13-3.96.33-5.42l35.03-35.03h-32.13c-.25,0-.49-.03-.74-.07l-.17-.04c-.18-.04-.4-.1-.61-.19,0,0-.31-.14-.37-.17l-.21-.13c-.13-.08-.19-.12-.26-.17-.07-.05-.14-.11-.2-.16-.97-.78-1.52-1.94-1.52-3.17v-41.97c0-1.08.4-2.07,1.12-2.84l.1-.11,41.97-41.97c.79-.79,1.83-1.22,2.94-1.22h41.84c1.36,0,2.62.6,3.38,1.6,1.24,1.63,1.08,3.94-.36,5.38l-35.03,35.03h32.23l.16.02c.08,0,.24.02.4.04.12.02.22.04.33.07.13.03.26.07.4.12.12.04.24.09.36.15.11.05.22.11.33.17.12.07.23.14.34.23l.09.05.05.04c.07.06.14.12.2.19.08.06.22.21.36.36.08.1.13.15.17.21.53.7.81,1.55.81,2.43v42.14c-.01.24-.04.46-.08.67-.04.18-.09.34-.14.5l-.09.26c-.08.2-.19.38-.29.56-.01.03-.05.09-.09.16-.15.22-.32.43-.51.62l-42,42c-.77.77-1.8,1.2-2.89,1.2h-41.9ZM98.29,164.42l33.79-33.83h-30.44l-33.83,33.83h30.48ZM137.86,122.42v-28.04l-28.04,28.04h28.04ZM98.29,122.42l33.79-33.83h-30.44l-33.83,33.83h30.48ZM62.03,116.63l28.04-28.04h-28.04v28.04ZM98.29,80.41l33.79-33.83h-30.44l-33.83,33.83h30.48Z"/>
</svg>