<?xml version="1.0" encoding="UTF-8"?>
<svg id="layout" xmlns="http://www.w3.org/2000/svg" viewBox="0 0 331.93 181.95">
  <defs>
    <style>
      .cls-1 {
        fill: #fff;
      }
    </style>
  </defs>
  <g>
    <path class="cls-1" d="M153.85,102.83c-2.74,0-5.21-.48-7.4-1.44-2.19-.96-3.94-2.36-5.23-4.22-1.22-1.75-1.88-3.9-1.99-6.43-.01-.25.2-.46.45-.46h5.65c.24,0,.43.19.44.42.12,1.98.86,3.6,2.21,4.87,1.44,1.35,3.39,2.03,5.82,2.03,2.1,0,3.82-.5,5.15-1.49,1.33-.99,2-2.39,2-4.19,0-1.09-.18-1.99-.53-2.7-.36-.71-.95-1.34-1.77-1.89-.83-.54-1.91-1.07-3.26-1.58-1.35-.51-3.04-1.1-5.06-1.77-2.29-.79-4.17-1.69-5.66-2.7-1.48-1.01-2.57-2.19-3.26-3.55-.69-1.35-1.04-2.87-1.04-4.56,0-2.44.57-4.47,1.72-6.11,1.14-1.63,2.69-2.87,4.64-3.71,1.95-.84,4.13-1.27,6.53-1.27s4.58.43,6.53,1.29c1.95.86,3.52,2.12,4.7,3.77,1.11,1.55,1.71,3.44,1.81,5.67.01.25-.19.46-.44.46h-5.65c-.23,0-.42-.18-.44-.42-.13-1.51-.75-2.78-1.86-3.83-1.22-1.14-2.84-1.72-4.87-1.72-1.73-.04-3.19.4-4.39,1.32-1.2.92-1.8,2.26-1.8,4.02,0,1.24.37,2.25,1.1,3.04.73.79,1.81,1.48,3.24,2.08,1.43.6,3.19,1.26,5.29,1.97,1.31.45,2.62.97,3.91,1.55,1.29.58,2.48,1.31,3.55,2.19,1.07.88,1.92,1.97,2.56,3.26.64,1.29.96,2.88.96,4.76,0,2.36-.61,4.39-1.83,6.08-1.22,1.69-2.85,2.98-4.9,3.88-2.05.9-4.32,1.35-6.84,1.35Z"/>
    <path class="cls-1" d="M171.62,101.71v-27.03c0-.24.2-.44.44-.44h5.25c.24,0,.44.2.44.44v27.03c0,.24-.2.44-.44.44h-5.25c-.24,0-.44-.2-.44-.44Z"/>
    <path class="cls-1" d="M182.89,101.71v-27.03c0-.24.2-.44.44-.44h5.09c.24,0,.44.19.44.43l.06,1.89c.01.4.51.58.77.28.81-.93,1.78-1.66,2.9-2.2,1.48-.71,3.09-1.07,4.81-1.07,2.14,0,4.07.44,5.8,1.32,1.52.78,2.73,1.94,3.64,3.48.16.28.56.29.74.02.93-1.42,2.12-2.55,3.58-3.39,1.67-.96,3.5-1.44,5.49-1.44,2.21,0,4.16.44,5.85,1.32,1.69.88,3.02,2.22,4,4.02.98,1.8,1.46,4.07,1.46,6.81v15.99c0,.24-.2.44-.44.44h-5.25c-.24,0-.44-.2-.44-.44v-15.15c0-2.44-.53-4.32-1.6-5.66-1.07-1.33-2.67-2-4.81-2s-3.83.72-5.06,2.17c-1.24,1.44-1.86,3.44-1.86,5.99v14.64c0,.24-.2.44-.44.44h-5.25c-.24,0-.44-.2-.44-.44v-15.15c0-2.48-.55-4.37-1.66-5.68-1.11-1.31-2.69-1.97-4.76-1.97-1.91,0-3.55.68-4.9,2.03-1.35,1.35-2.03,3.4-2.03,6.13v14.64c0,.24-.2.44-.44.44h-5.25c-.24,0-.44-.2-.44-.44Z"/>
    <path class="cls-1" d="M232.58,114.09v-39.41c0-.24.2-.44.44-.44h5.1c.24,0,.43.19.44.42l.1,2.55c.02.4.51.57.78.27.9-1.01,1.99-1.87,3.27-2.57,1.65-.9,3.56-1.35,5.74-1.35,2.78,0,5.15.65,7.12,1.94,1.97,1.29,3.5,3.05,4.59,5.26,1.09,2.21,1.63,4.67,1.63,7.37s-.54,5.18-1.63,7.43c-1.09,2.25-2.63,4.02-4.61,5.32-1.99,1.29-4.35,1.94-7.09,1.94-2.33,0-4.31-.48-5.97-1.44-1.2-.69-2.18-1.48-2.94-2.36-.27-.31-.77-.12-.77.29v14.77c0,.24-.2.44-.44.44h-5.3c-.24,0-.44-.2-.44-.44ZM247.1,97.43c1.69,0,3.15-.4,4.39-1.21,1.24-.81,2.21-1.91,2.93-3.32.71-1.41,1.07-2.99,1.07-4.76,0-1.88-.37-3.5-1.1-4.87-.73-1.37-1.73-2.43-2.98-3.18-1.26-.75-2.69-1.13-4.31-1.13s-3.05.39-4.31,1.18c-1.26.79-2.24,1.88-2.95,3.26-.71,1.39-1.07,2.98-1.07,4.78s.35,3.29,1.04,4.7c.69,1.41,1.67,2.51,2.93,3.32,1.26.81,2.71,1.21,4.36,1.21Z"/>
    <path class="cls-1" d="M265.58,101.71v-38.51c0-.24.2-.44.44-.44h5.3c.24,0,.44.2.44.44v38.51c0,.24-.2.44-.44.44h-5.3c-.24,0-.44-.2-.44-.44Z"/>
    <path class="cls-1" d="M285.4,102.83c-1.76,0-3.39-.33-4.87-.98-1.48-.66-2.67-1.62-3.57-2.9-.9-1.27-1.35-2.81-1.35-4.61,0-2.1.53-3.8,1.6-5.09,1.07-1.29,2.5-2.25,4.31-2.87,1.8-.62,3.81-.93,6.02-.93h6.53c.25,0,.45-.21.44-.45-.04-1.37-.3-2.48-.75-3.34-.51-.96-1.2-1.68-2.08-2.17-.88-.49-1.9-.73-3.07-.73-1.54,0-2.89.36-4.05,1.07-1.07.66-1.76,1.66-2.07,3.02-.05.21-.22.36-.43.36h-5.39c-.27,0-.48-.23-.44-.5.25-1.81.91-3.37,2-4.68,1.18-1.43,2.69-2.52,4.53-3.29,1.84-.77,3.81-1.15,5.91-1.15,2.7,0,4.94.5,6.72,1.49,1.78.99,3.12,2.37,4.02,4.14.9,1.76,1.35,3.79,1.35,6.08v8.55c.04,1.05.28,1.81.73,2.28.39.41,1.02.67,1.87.78.22.03.38.22.38.44v4.38c0,.25-.21.45-.45.44-1.35-.03-2.52-.2-3.51-.5-1.11-.34-2.03-.84-2.76-1.52-.56-.52-1.03-1.15-1.4-1.91-.15-.3-.56-.34-.75-.07-.87,1.22-2.05,2.26-3.53,3.14-1.74,1.03-3.72,1.55-5.94,1.55ZM286.92,97.77c1.5,0,2.82-.36,3.97-1.07,1.14-.71,2.03-1.68,2.67-2.9.62-1.18.96-2.48.96-3.88,0-.11-.08-.25-.32-.25h-6.26c-1.01,0-1.98.13-2.9.39-.92.26-1.66.69-2.22,1.29-.56.6-.84,1.41-.84,2.42,0,1.39.49,2.4,1.46,3.04.98.64,2.14.96,3.49.96Z"/>
    <path class="cls-1" d="M139.23,146v-38.51c0-.24.2-.44.44-.44h12.44c4.69,0,8.53.82,11.51,2.45,2.98,1.63,5.19,3.92,6.61,6.87,1.42,2.95,2.14,6.43,2.14,10.44s-.76,7.66-2.28,10.61c-1.52,2.95-3.77,5.19-6.75,6.73-2.98,1.54-6.72,2.31-11.23,2.31h-12.44c-.24,0-.44-.2-.44-.44ZM145.42,140.76c0,.24.2.44.44.44h6.03c3.49,0,6.27-.57,8.33-1.72,2.06-1.14,3.55-2.79,4.45-4.95.9-2.16,1.35-4.74,1.35-7.74,0-4.99-1.14-8.66-3.43-11-2.29-2.34-5.85-3.52-10.69-3.52h-6.03c-.24,0-.44.2-.44.44v28.04Z"/>
    <path class="cls-1" d="M189.74,147.11c-2.74,0-5.19-.59-7.34-1.77-2.16-1.18-3.86-2.88-5.12-5.09-1.26-2.21-1.89-4.8-1.89-7.77s.65-5.65,1.94-7.82c1.29-2.18,3.05-3.85,5.26-5.04,2.21-1.18,4.67-1.77,7.37-1.77s5.15.59,7.34,1.77c2.19,1.18,3.94,2.86,5.23,5.04,1.29,2.18,1.94,4.78,1.94,7.82,0,2.81-.63,5.33-1.89,7.54-1.26,2.21-2.99,3.95-5.21,5.21-2.21,1.26-4.76,1.89-7.65,1.89ZM189.79,141.77c1.61,0,3.05-.41,4.31-1.24,1.26-.82,2.25-1.94,2.98-3.35.73-1.41,1.1-3.01,1.1-4.81s-.36-3.45-1.07-4.84c-.71-1.39-1.7-2.46-2.95-3.21-1.26-.75-2.69-1.13-4.31-1.13-1.73,0-3.2.4-4.42,1.21-1.22.81-2.16,1.9-2.81,3.29-.66,1.39-.98,2.98-.98,4.78,0,1.99.37,3.68,1.13,5.06.75,1.39,1.75,2.44,3.01,3.15,1.26.71,2.6,1.07,4.02,1.07Z"/>
    <path class="cls-1" d="M221,147.11c-2.74,0-5.16-.62-7.26-1.86-2.1-1.24-3.75-2.95-4.95-5.15-1.2-2.19-1.8-4.74-1.8-7.63s.58-5.37,1.74-7.57c1.16-2.19,2.79-3.92,4.9-5.18,2.1-1.26,4.56-1.89,7.37-1.89,3.34,0,6.16.85,8.47,2.56,2.17,1.6,3.65,3.83,4.44,6.67.08.28-.14.56-.43.56h-5.62c-.2,0-.36-.13-.42-.32-.37-1.2-1.1-2.19-2.19-2.97-1.18-.84-2.62-1.27-4.31-1.27s-3.15.43-4.28,1.29c-1.13.86-1.97,2.01-2.53,3.43-.56,1.43-.84,2.98-.84,4.67s.3,3.36.9,4.78c.6,1.43,1.46,2.55,2.59,3.38,1.13.83,2.51,1.24,4.16,1.24s3.06-.39,4.22-1.18c1.08-.73,1.83-1.75,2.27-3.07.06-.18.23-.31.42-.31h5.64c.29,0,.51.27.43.55-.47,1.76-1.26,3.31-2.37,4.65-1.22,1.48-2.73,2.62-4.53,3.4-1.8.79-3.81,1.18-6.02,1.18Z"/>
    <path class="cls-1" d="M248.81,147.11c-2.18,0-4.16-.39-5.97-1.15s-3.27-1.87-4.42-3.29c-1.05-1.3-1.68-2.81-1.89-4.52-.03-.26.18-.49.44-.49h5.35c.2,0,.38.14.43.34.31,1.16.95,2.12,1.95,2.89,1.09.84,2.44,1.27,4.05,1.27,1.46,0,2.65-.31,3.57-.93.92-.62,1.38-1.47,1.38-2.56,0-.94-.31-1.66-.93-2.17-.62-.51-1.41-.9-2.36-1.18-.96-.28-1.96-.53-3.01-.76-1.76-.41-3.4-.92-4.92-1.52-1.52-.6-2.75-1.44-3.69-2.5-.94-1.07-1.41-2.49-1.41-4.25s.48-3.27,1.44-4.53c.96-1.26,2.25-2.22,3.88-2.9,1.63-.68,3.44-1.01,5.43-1.01,3.08,0,5.63.77,7.65,2.31,1.91,1.45,3.04,3.52,3.38,6.2.03.26-.18.49-.44.49h-5.08c-.22,0-.4-.17-.44-.39-.18-1.09-.7-1.94-1.56-2.57-.96-.69-2.17-1.04-3.63-1.04-1.31,0-2.4.25-3.26.76-.86.51-1.29,1.3-1.29,2.39,0,.75.3,1.38.9,1.89.6.51,1.39.92,2.36,1.24.98.32,1.95.59,2.93.82,1.91.45,3.62.98,5.12,1.58,1.5.6,2.7,1.44,3.6,2.53.9,1.09,1.35,2.57,1.35,4.45.04,1.76-.43,3.29-1.41,4.59-.98,1.29-2.29,2.29-3.94,2.98-1.65.69-3.51,1.04-5.57,1.04Z"/>
    <path class="cls-1" d="M174.65,69.57c-1.13,0-2.08-.39-2.87-1.18-.79-.79-1.18-1.76-1.18-2.93s.39-2.08,1.18-2.87c.79-.79,1.74-1.18,2.87-1.18s2.14.39,2.93,1.18c.79.79,1.18,1.74,1.18,2.87s-.39,2.14-1.18,2.93c-.79.79-1.76,1.18-2.93,1.18Z"/>
  </g>
  <path class="cls-1" d="M110.65,64.36s-.06-.08-.1-.12c-.09-.1-.18-.19-.28-.28-.03-.03-.05-.06-.08-.08-.03-.02-.06-.03-.09-.06-.07-.05-.14-.09-.21-.14-.07-.04-.14-.08-.21-.11-.07-.03-.15-.06-.22-.09-.08-.03-.17-.06-.25-.08-.07-.02-.14-.03-.21-.04-.1-.02-.2-.03-.3-.03-.04,0-.08-.01-.12-.01h-32.69l34.53-34.53c.9-.9,1.04-2.35.22-3.42-.51-.67-1.34-1.01-2.19-1.01h-38.81c-.71,0-1.39.28-1.89.78l-38.92,38.92s0,0,0,0c-.48.47-.77,1.12-.77,1.85v38.96c0,.82.38,1.53.97,2.01.04.04.08.07.13.11.05.03.1.06.15.09.05.03.09.06.15.09.04.02.09.04.13.06.03.02.07.03.1.05.14.05.27.1.41.13.03,0,.06.01.09.02.16.03.31.05.47.05,0,0,0,0,0,0s0,0,0,0h32.69l-34.53,34.53c-.91.91-1.04,2.37-.2,3.45.5.65,1.31.99,2.14.99h38.87c.69,0,1.35-.27,1.84-.76l38.96-38.96c.12-.12.23-.25.32-.39.02-.03.04-.07.06-.1.07-.11.13-.22.18-.34.02-.05.03-.1.05-.15.04-.11.08-.22.1-.34.03-.16.05-.32.05-.48,0-.01,0-.02,0-.03h0v-38.96c0-.59-.2-1.12-.53-1.55ZM105.98,73.52v27.66c0,.61-.49,1.1-1.1,1.1h-27.66c-.49,0-.74-.59-.39-.94l28.21-28.21c.35-.35.94-.1.94.39ZM70.37,29.87c.21-.21.49-.32.78-.32h29.83c.49,0,.74.59.39.94l-32.5,32.5c-.21.21-.49.32-.78.32h-29.83c-.49,0-.74-.59-.39-.94l32.5-32.5ZM33.25,97.27v-28.21c0-.3.25-.55.55-.55h28.21c.49,0,.74.59.39.94l-28.21,28.21c-.35.35-.94.1-.94-.39ZM37.87,101.34l32.5-32.5c.21-.21.49-.32.78-.32h29.83c.49,0,.74.59.39.94l-32.5,32.5c-.21.21-.49.32-.78.32h-29.83c-.49,0-.74-.59-.39-.94ZM68.86,140.92c-.21.21-.49.32-.78.32h-29.83c-.49,0-.74-.59-.39-.94l32.5-32.5c.21-.21.49-.32.78-.32h29.83c.49,0,.74.59.39.94l-32.5,32.5Z"/>
</svg>